<?xml version="1.0" standalone="no"?><!DOCTYPE svg PUBLIC "-//W3C//DTD SVG 1.1//EN" "http://www.w3.org/Graphics/SVG/1.1/DTD/svg11.dtd"><svg t="1698680776385" class="icon" viewBox="0 0 1024 1024" version="1.1" xmlns="http://www.w3.org/2000/svg" p-id="20972" data-spm-anchor-id="a313x.search_index.0.i34.2e9c3a81PNNkuT" xmlns:xlink="http://www.w3.org/1999/xlink" width="200" height="200"><path d="M957.856 736l2.144 1.12-159.264 189.28H255.264L64 737.12 66.144 736H64L512 96l448 640h-2.144z" fill="#ffffff" p-id="20973" data-spm-anchor-id="a313x.search_index.0.i33.2e9c3a81PNNkuT" class="selected"></path><path d="M496 320V192h32v128h-32z m0 192v-128h32v128h-32z m1.632 28.608L512 512l85.76 43.104-14.336 28.608-85.792-43.104z m171.552 86.208l14.4-28.608 85.76 43.104-14.4 28.608-85.76-43.104z m171.552 86.208l14.4-28.608 85.76 43.104-14.4 28.608-85.76-43.104zM88 760.864l-4.608-4.544 22.496-22.72-11.712-11.648 53.568-28.576 14.368 28.576-74.112 38.912z m137.536-69.12l-14.368-28.576 85.792-43.104 14.368 28.576-85.76 43.136z m157.216-114.784l85.76-43.104 14.4 28.576-85.792 43.104-14.4-28.576z" fill="#f4ea2a" p-id="20974" data-spm-anchor-id="a313x.search_index.0.i32.2e9c3a81PNNkuT" class=""></path><path d="M512.96 192.032L282.688 894.4h475.232L512.96 192z m-259.2 687.84l221.536-675.616L105.44 736l148.32 143.872z m255.936-780.608l2.336-7.072 2.688 7.68L960 736h-2.144l2.144 1.12-159.264 189.28H255.264L64 737.12 66.144 736H64L509.696 99.264z m43.84 111.84l236.544 678.24L920.32 736 553.504 211.104z" fill="#f4ea2a" p-id="20975" data-spm-anchor-id="a313x.search_index.0.i31.2e9c3a81PNNkuT" class=""></path></svg>