<?xml version="1.0" standalone="no"?><!DOCTYPE svg PUBLIC "-//W3C//DTD SVG 1.1//EN" "http://www.w3.org/Graphics/SVG/1.1/DTD/svg11.dtd"><svg t="1698679744163" class="icon" viewBox="0 0 1024 1024" version="1.1" xmlns="http://www.w3.org/2000/svg" p-id="9066" xmlns:xlink="http://www.w3.org/1999/xlink" width="200" height="200"><path d="M112.64 552.96v245.76h788.48V552.96H112.64z m0-40.96h788.48a40.96 40.96 0 0 1 40.96 40.96v245.76a40.96 40.96 0 0 1-40.96 40.96H112.64a40.96 40.96 0 0 1-40.96-40.96V552.96a40.96 40.96 0 0 1 40.96-40.96z" fill="#2c2c2c" p-id="9067"></path><path d="M92.16 239.22688h84.1728c19.32288 0 34.68288 4.23936 45.79328 12.97408 11.65312 9.5232 17.73568 23.28576 17.73568 41.28768 0 9.79968-2.64192 18.5344-7.936 26.2144-5.82656 8.46848-14.0288 14.0288-24.08448 16.67072v0.53248c16.40448 3.70688 25.67168 14.55104 27.79136 33.0752l3.1744 30.45376c1.05472 11.64288 5.02784 20.91008 11.38688 27.79136H216.576c-4.5056-5.82656-7.14752-14.0288-8.21248-24.61696l-2.37568-23.296c-1.06496-10.32192-4.23936-17.73568-9.53344-22.23104-5.56032-4.77184-13.76256-6.88128-24.35072-6.88128h-48.97792v77.02528H92.16V239.22688z m30.96576 26.4704v59.0336h48.97792c12.17536 0 21.44256-2.65216 27.79136-7.68 5.82656-5.29408 8.73472-12.6976 8.73472-22.24128 0-10.32192-2.90816-17.73568-8.73472-22.23104-5.82656-4.7616-15.08352-6.88128-27.79136-6.88128h-48.97792z m153.53856-26.4704H412.9792v26.4704H307.63008v52.40832h99.00032v26.4704h-99.00032v57.18016H417.4848v26.4704H276.66432V239.22688zM513.31072 235.52c22.23104 0 39.70048 4.5056 52.14208 13.76256 13.24032 9.79968 20.91008 25.14944 22.76352 45.79328h-30.69952c-2.65216-11.64288-7.68-20.11136-14.56128-25.1392-6.88128-5.29408-17.46944-7.68-31.232-7.68-11.91936 0-20.91008 1.5872-27.26912 5.02784-7.936 3.97312-11.64288 10.58816-11.64288 19.58912 0 7.936 4.22912 14.56128 13.23008 19.32288 3.97312 2.11968 14.82752 6.0928 32.29696 11.64288 25.67168 7.94624 42.0864 14.29504 49.50016 18.5344 16.41472 9.78944 24.61696 23.296 24.61696 40.7552 0 16.9472-6.61504 30.45376-19.85536 40.2432-13.23008 9.5232-32.03072 14.56128-56.1152 14.56128-23.296 0-41.56416-4.5056-54.528-13.49632-15.88224-11.12064-24.61696-28.59008-25.94816-52.6848h30.72c2.10944 14.29504 7.13728 24.61696 15.33952 30.70976 7.41376 5.29408 18.80064 8.20224 34.41664 8.20224 13.76256 0 24.8832-2.37568 32.8192-6.88128 7.94624-4.7616 12.1856-10.8544 12.1856-18.7904 0-10.05568-6.0928-18.00192-17.73568-23.82848-3.70688-1.8432-15.88224-6.08256-36.80256-12.4416-23.28576-7.40352-37.84704-12.6976-43.4176-15.872-14.5408-8.74496-21.69856-21.4528-21.69856-38.12352 0-16.68096 6.88128-29.91104 21.17632-39.44448C476.2624 240.0256 492.92288 235.52 513.31072 235.52z m105.61536 3.70688h136.32512v26.4704H649.90208v52.40832h99.00032v26.4704h-99.00032v57.18016h109.84448v26.4704H618.92608V239.22688z m155.38176 0H929.1776v26.4704h-61.952v162.52928h-30.96576V265.69728h-61.94176v-26.4704z" fill="#2c2c2c" p-id="9068"></path></svg>