<?xml version="1.0" standalone="no"?><!DOCTYPE svg PUBLIC "-//W3C//DTD SVG 1.1//EN" "http://www.w3.org/Graphics/SVG/1.1/DTD/svg11.dtd"><svg t="1698679671312" class="icon" viewBox="0 0 1024 1024" version="1.1" xmlns="http://www.w3.org/2000/svg" p-id="7758" xmlns:xlink="http://www.w3.org/1999/xlink" width="200" height="200"><path d="M494.631208 1023.911462l-267.309943-86.84396-122.428801-40.244761A25.417744 25.417744 0 0 1 88.37093 864.203302a25.841373 25.841373 0 0 1 15.250647-16.945163l391.009631-127.08872a24.994115 24.994115 0 0 1 17.368792 0l389.315115 127.08872a25.417744 25.417744 0 0 1 0 48.293714l-391.009631 127.088721h-7.625324a15.674276 15.674276 0 0 1-8.048952 1.270888z m-42.362907-66.509764l48.717343 16.097904 46.599198-15.250646-49.140972-16.945163z m124.123318-42.362907l51.259117 17.368791 56.342666-18.21605-52.953633-17.79242z m-263.497282-2.541775l59.30807 19.486937 47.870085-16.521533-58.037183-19.486938z m127.088721-42.362907l59.30807 19.486937 55.071779-19.063308-57.189924-19.486937z m268.157201 0L766.177442 889.621046l47.446456-15.250646-56.766296-19.063308z m-518.521981 3.389033l42.362907 13.979759 50.411859-17.368792-42.362907-13.979759z m383.807937-49.140972l56.766295 19.486937 42.362907-15.250647-57.189924-19.063308z m-252.059296 5.507178l39.821132 13.55613 55.495408-19.063308-38.973874-13.132501z m135.561302-44.904682l38.126616 12.708872 42.362907-14.403388-38.126616-12.708872z m399.905842 17.792421V328.736158a24.994115 24.994115 0 1 1 49.98823 0v474.464558a25.417744 25.417744 0 0 1-24.146857 26.265003 24.994115 24.994115 0 0 1-25.841373-24.146857z m-773.123052 0V327.8889a24.994115 24.994115 0 0 1 49.98823 0v472.346413a24.994115 24.994115 0 0 1-49.98823 0z m643.916185-50.835488V381.266163a24.570486 24.570486 0 0 1 23.299599-25.417744 24.146857 24.146857 0 0 1 24.994115 23.299598v370.251807a23.723228 23.723228 0 0 1-22.875969 24.994115 24.570486 24.570486 0 0 1-25.417745-22.875969zM215.459651 748.128937V381.266163a23.723228 23.723228 0 0 1 22.87597-24.994115 24.146857 24.146857 0 0 1 25.417744 22.875969v370.251807a24.146857 24.146857 0 0 1-23.299599 24.994115 23.723228 23.723228 0 0 1-24.994115-24.146857v-2.118145z m272.817121-341.44503l-122.428801-39.821133a26.688631 26.688631 0 0 1-13.55613-4.23629l-254.177442-84.725814a25.417744 25.417744 0 0 1-16.097905-32.19581 24.570486 24.570486 0 0 1 16.097905-15.674275l391.009631-127.088721a23.299599 23.299599 0 0 1 15.250647 0l391.009631 127.088721a25.417744 25.417744 0 0 1 0 48.293714l-263.92091 84.725814a20.757824 20.757824 0 0 1-8.048953 2.965403l-119.887026 40.668391h-7.625324a19.910566 19.910566 0 0 1-7.201694 0zM448.03201 338.903256l47.870085 15.674275 42.362907-14.403388-47.446455-16.097905z m121.581543-42.362907l49.140973 16.945163L681.451628 296.540349l-51.259118-17.368792zM310.776192 296.540349l57.189924 18.639679 46.175569-15.674276-55.495408-19.910566z m127.088721-42.362907l55.495408 19.486937L550.550245 254.177442l-55.919037-18.639679z m271.122604 0l52.530005 17.792421L805.574945 254.177442l-54.64815-16.945163zM186.229245 254.177442l44.481053 14.827017L281.122157 254.177442l-42.362907-14.403389z m132.17227-42.362907l42.362907 13.979759 57.189925-19.486937-41.515649-13.132501z m254.177442-5.930807l55.919037 19.063308 42.362907-13.979759-57.189924-18.21605z m-116.497994-39.397504l37.702987 13.132502 39.397503-13.556131-37.702987-12.285243z" fill="#2c2c2c" p-id="7759"></path></svg>