<?xml version="1.0" standalone="no"?><!DOCTYPE svg PUBLIC "-//W3C//DTD SVG 1.1//EN" "http://www.w3.org/Graphics/SVG/1.1/DTD/svg11.dtd"><svg t="1698679552326" class="icon" viewBox="0 0 1024 1024" version="1.1" xmlns="http://www.w3.org/2000/svg" p-id="4174" xmlns:xlink="http://www.w3.org/1999/xlink" width="200" height="200"><path d="M64 280.32l448.042667 216.234667L960 280.32 521.301333 68.48a21.333333 21.333333 0 0 0-18.517333 0L64 280.277333z" fill="#2c2c2c" p-id="4175"></path><path d="M64 743.68l447.914667 216.277333 448-216.32L512 527.445333 64 743.68z" fill="#2c2c2c" fill-opacity=".5" p-id="4176"></path><path d="M480.298667 465.621333v417.152l-353.365334-169.472-3.370666 1.621334 3.413333-1.621334V310.698667L64 280.277333v463.445334l0.085333-0.042667 398.250667 192.298667a22.186667 22.186667 0 0 0 5.077333 1.706666l35.2 17.621334a21.333333 21.333333 0 0 0 18.816 0.128l420.821334-203.221334 0.170666 0.042667 17.450667-7.552V280.32l-62.805333 30.336v406.784L543.616 883.2v-417.536h-63.317333z" fill="#2c2c2c" p-id="4177"></path></svg>